<?xml version="1.0" encoding="utf-8"?>
<!-- Generator: Adobe Illustrator 26.0.1, SVG Export Plug-In . SVG Version: 6.00 Build 0)  -->
<svg version="1.1" id="Layer_1" xmlns="http://www.w3.org/2000/svg" xmlns:xlink="http://www.w3.org/1999/xlink" x="0px" y="0px"
	 width="82.5px" height="28px" viewBox="0 0 82.5 28" style="enable-background:new 0 0 82.5 28;" xml:space="preserve">
<style type="text/css">
	.st0{fill-opacity:0.6;}
	.st1{fill:#95BF47;}
	.st2{fill:#5E8E3E;}
	.st3{fill:#FFFFFF;}
	.st4{fill:#D2D0CC;}
</style>
<path d="M40,8.2c-0.6-0.3-0.8-0.6-0.8-0.9c0-0.4,0.4-0.7,1-0.7c0.7,0,1.4,0.3,1.4,0.3l0.5-1.6c0,0-0.5-0.4-1.8-0.4
	c-1.9,0-3.2,1.1-3.2,2.6c0,0.9,0.6,1.5,1.4,2c0.7,0.4,0.9,0.7,0.9,1c0,0.4-0.3,0.7-1,0.7c-0.9,0-1.8-0.5-1.8-0.5L36,12.5
	c0,0,0.8,0.5,2.2,0.5c2,0,3.4-1,3.4-2.7C41.6,9.4,40.8,8.7,40,8.2z M47.8,4.9c-1,0-1.7,0.5-2.3,1.2l0,0l0.8-4.4h-2.2L42,12.9h2.2
	l0.7-3.8c0.3-1.4,1-2.3,1.7-2.3c0.5,0,0.7,0.3,0.7,0.8c0,0.3,0,0.7-0.1,1L46.4,13h2.2l0.9-4.5c0.1-0.5,0.1-1,0.2-1.4
	C49.6,5.7,49,4.9,47.8,4.9z M54.6,4.9c-2.6,0-4.4,2.4-4.4,5c0,1.7,1,3.1,3,3.1c2.6,0,4.3-2.3,4.3-5C57.6,6.4,56.7,4.9,54.6,4.9z
	 M53.5,11.4c-0.7,0-1.1-0.6-1.1-1.4c0-1.3,0.7-3.3,1.8-3.3c0.8,0,1,0.7,1,1.3C55.3,9.3,54.7,11.4,53.5,11.4z M63.2,4.9
	c-1.5,0-2.3,1.3-2.3,1.3l0,0L61,5h-2c-0.1,1-0.3,1.9-0.4,2.9l-1.5,8h2.2l0.6-3.2l0,0c0,0,0.4,0.3,1.3,0.3c2.6,0,4.3-2.6,4.3-5.3
	C65.5,6.3,64.8,4.9,63.2,4.9z M61.1,11.4c-0.6,0-0.9-0.3-0.9-0.3L60.6,9c0.3-1.4,1-2.3,1.7-2.3s0.9,0.6,0.9,1.2
	C63.2,9.4,62.3,11.4,61.1,11.4L61.1,11.4z M68.6,1.8c-0.7,0-1.3,0.6-1.3,1.3s0.4,1.1,1,1.1l0,0c0.7,0,1.3-0.5,1.3-1.3
	C69.7,2.3,69.3,1.8,68.6,1.8z M65.5,12.9h2.2l1.5-7.8H67L65.5,12.9z M74.8,5.1h-1.5l0.1-0.4C73.5,4,74,3.3,74.7,3.3
	c0.4,0,0.7,0.1,0.7,0.1l0.4-1.7c0,0-0.4-0.2-1.2-0.2c-0.8,0-1.6,0.2-2.1,0.7c-0.7,0.6-1.1,1.6-1.3,2.5l-0.1,0.4h-1l-0.3,1.7h1
	l-1.2,6.1h2.2L73,6.8h1.5C74.5,6.8,74.8,5.1,74.8,5.1z M80.1,5.1c0,0-1.4,3.5-2,5.3l0,0c0-0.6-0.5-5.3-0.5-5.3h-2.3l1.3,7.1
	c0,0.2,0,0.3,0,0.4c-0.3,0.5-0.7,1-1.2,1.3c-0.4,0.3-0.9,0.5-1.2,0.6l0.6,1.9c0.4-0.1,1.4-0.5,2.1-1.2c1-0.9,1.9-2.4,2.9-4.4L82.5,5
	L80.1,5.1L80.1,5.1z"/>
<path class="st0" d="M47,24c0-1.2-0.8-1.7-2.1-2c-1-0.2-1.2-0.5-1.2-1s0.3-0.8,1-0.8c0.6,0,1,0.3,1.1,0.9l1.1-0.2
	c-0.1-1-0.9-1.6-2.2-1.6s-2.1,0.7-2.1,1.8c0,1.1,0.7,1.6,2,1.9c0.9,0.2,1.3,0.5,1.3,1c0,0.5-0.4,0.9-1.1,0.9c-0.8,0-1.1-0.5-1.2-1.1
	L42.3,24c0.1,1,0.9,1.9,2.4,1.9C46.1,25.9,47,25.1,47,24z M48.5,25.8h4v-1h-2.8V23h2.1v-0.9h-2.1v-1.7h2.6v-1h-3.8V25.8L48.5,25.8z
	 M58.9,23.8l-1.1-0.2c-0.1,0.7-0.6,1.3-1.4,1.3c-0.9,0-1.5-0.7-1.5-2v-0.7c0-1.3,0.6-2,1.5-2c0.7,0,1.1,0.5,1.2,1.2l1.2-0.2
	c-0.2-1.1-1-2-2.5-2c-1.6,0-2.8,1.1-2.8,3v0.7c0,1.8,1,3,2.8,3C58,25.9,58.8,24.7,58.9,23.8z M63.9,19.4v4c0,1.1-0.4,1.5-1.2,1.5
	c-0.8,0-1.2-0.4-1.2-1.5v-4.1h-1.2v4.1c0,1.6,0.9,2.4,2.4,2.4c1.6,0,2.5-0.8,2.5-2.4v-4.1L63.9,19.4L63.9,19.4z M66.9,25.8h1.2v-2.6
	H69l1.5,2.6h1.3L70.1,23c0.7-0.2,1.3-0.7,1.3-1.6v-0.1c0-1.3-0.9-1.8-2.3-1.8h-2.2V25.8z M68.1,22.3v-2h1c0.7,0,1.1,0.2,1.1,0.9v0.1
	c0,0.7-0.4,1-1.1,1H68.1z M73.1,25.8h4v-1h-2.8V23h2.1v-0.9h-2.1v-1.7h2.6v-1h-3.8C73.1,19.4,73.1,25.8,73.1,25.8z"/>
<path class="st1" d="M19.3,6.8c0-0.1-0.1-0.2-0.2-0.2s-1.9,0-1.9,0S15.7,5.2,15.6,5c-0.1-0.1-0.4-0.1-0.5-0.1l-0.7,0.2
	c-0.1-0.3-0.2-0.6-0.4-0.9c-0.5-1-1.3-1.5-2.2-1.5l0,0c-0.1,0-0.1,0-0.2,0l-0.1-0.1C11,2.2,10.5,2,9.8,2C8.6,2,7.4,2.9,6.4,4.5
	C5.7,5.6,5.2,7,5,8L2.6,8.7C2,8.9,2,9,1.9,9.6C1.8,10.1,0,24.3,0,24.3L15.3,27l6.7-1.7C22,25.3,19.3,6.9,19.3,6.8L19.3,6.8z
	 M13.5,5.4l-1.2,0.4c0-0.6-0.1-1.5-0.4-2.2C12.9,3.7,13.3,4.8,13.5,5.4z M11.5,6L8.9,6.8c0.2-0.9,0.7-1.9,1.3-2.5
	c0.2-0.2,0.5-0.5,0.9-0.6C11.4,4.3,11.5,5.3,11.5,6z M9.9,2.8c0.3,0,0.5,0.1,0.7,0.2C10.3,3.2,10,3.4,9.7,3.7C8.9,4.5,8.3,5.8,8.1,7
	L6,7.7C6.4,5.8,8,2.9,9.9,2.8z"/>
<path class="st2" d="M19,6.6c-0.6,0-1.2,0-1.9,0c0,0-1.5-1.4-1.6-1.6c-0.1-0.1-0.1-0.1-0.2-0.1v22l6.7-1.7c0,0-2.7-18.3-2.7-18.5
	C19.3,6.7,19.2,6.6,19,6.6L19,6.6z"/>
<path class="st3" d="M11.7,10l-0.8,2.9c0,0-0.9-0.4-1.9-0.3c-1.5,0.1-1.5,1-1.5,1.3c0.1,1.3,3.5,1.6,3.7,4.6c0.1,2.4-1.3,4-3.3,4.1
	c-2.4,0.2-3.8-1.3-3.8-1.3l0.5-2.2c0,0,1.4,1,2.4,1c0.7,0,1-0.6,0.9-1c-0.1-1.7-2.9-1.6-3.1-4.4C4.7,12.4,6.2,10,9.6,9.8
	C11,9.7,11.7,10,11.7,10L11.7,10z"/>
<path class="st4" d="M29,0h1v28h-1V0z"/>
</svg>
