<?xml version="1.0" encoding="utf-8"?>
<!-- Generator: Adobe Illustrator 26.0.2, SVG Export Plug-In . SVG Version: 6.00 Build 0)  -->
<svg version="1.1" id="Layer_1" xmlns="http://www.w3.org/2000/svg" xmlns:xlink="http://www.w3.org/1999/xlink" x="0px" y="0px"
	 width="64.3px" height="50px" viewBox="0 0 64.3 50" style="enable-background:new 0 0 64.3 50;" xml:space="preserve">
<style type="text/css">
	.st0{fill:#231F20;}
	.st1{fill:#FF5F00;}
	.st2{fill:#EB001B;}
	.st3{fill:#F79E1B;}
</style>
<g>
	<g>
		<path class="st0" d="M11.8,49.7v-3.3c0.1-1.1-0.7-2-1.8-2.1c-0.1,0-0.2,0-0.3,0c-0.7,0-1.4,0.3-1.8,0.9c-0.4-0.6-1-1-1.7-0.9
			c-0.6,0-1.2,0.3-1.5,0.8v-0.6H3.4v5.3h1.2v-2.9c-0.1-0.7,0.4-1.3,1-1.4c0.1,0,0.2,0,0.2,0c0.8,0,1.1,0.5,1.1,1.4v2.9h1.2v-2.9
			c-0.1-0.7,0.4-1.3,1.1-1.4c0.1,0,0.1,0,0.2,0c0.8,0,1.2,0.5,1.2,1.4v2.9L11.8,49.7z M28.9,44.4H27v-1.6h-1.2v1.6h-1.1v1h1.1v2.4
			c0,1.2,0.5,1.9,1.8,1.9c0.5,0,1-0.1,1.4-0.4l-0.3-1c-0.3,0.2-0.7,0.3-1,0.3c-0.6,0-0.8-0.4-0.8-0.9v-2.4h1.9V44.4z M38.6,44.3
			c-0.6,0-1.1,0.3-1.4,0.8v-0.6h-1.1v5.3h1.1v-2.9c0-0.9,0.4-1.4,1.1-1.4c0.2,0,0.5,0,0.7,0.1l0.4-1.1
			C39.2,44.3,38.9,44.3,38.6,44.3L38.6,44.3z M23.9,44.8c-0.6-0.4-1.4-0.6-2.1-0.6c-1.3,0-2.2,0.6-2.2,1.7c0,0.9,0.6,1.4,1.8,1.6
			l0.5,0.1c0.6,0.1,0.9,0.3,0.9,0.6c0,0.4-0.4,0.6-1.2,0.6c-0.6,0-1.2-0.2-1.7-0.6l-0.5,0.9c0.7,0.5,1.5,0.7,2.3,0.7
			c1.5,0,2.4-0.7,2.4-1.7c0-0.9-0.7-1.4-1.8-1.6l-0.5-0.1c-0.5-0.1-0.9-0.2-0.9-0.5c0-0.4,0.4-0.6,1-0.6c0.6,0,1.1,0.2,1.6,0.5
			L23.9,44.8z M54.5,44.3c-0.6,0-1.1,0.3-1.4,0.8v-0.6H52v5.3h1.1v-2.9c0-0.9,0.4-1.4,1.1-1.4c0.2,0,0.5,0,0.7,0.1l0.4-1.1
			C55.1,44.3,54.8,44.3,54.5,44.3L54.5,44.3z M39.8,47c-0.1,1.5,1.1,2.7,2.5,2.8c0.1,0,0.2,0,0.3,0c0.7,0,1.4-0.2,1.9-0.6l-0.6-0.9
			c-0.4,0.3-0.9,0.5-1.4,0.5c-0.9-0.1-1.6-0.9-1.6-1.8c0.1-0.9,0.7-1.5,1.6-1.6c0.5,0,1,0.2,1.4,0.5l0.6-0.9
			c-0.5-0.4-1.2-0.7-1.9-0.6c-1.5-0.1-2.7,1-2.8,2.5C39.8,46.9,39.8,47,39.8,47L39.8,47z M50.5,47v-2.6h-1.1v0.6
			c-0.4-0.5-1-0.8-1.7-0.8c-1.5,0.1-2.7,1.4-2.6,2.9c0.1,1.4,1.2,2.6,2.6,2.6c0.6,0,1.3-0.3,1.7-0.8v0.6h1.1V47z M46.2,47
			c0.1-0.9,0.8-1.5,1.7-1.5c0.9,0.1,1.5,0.8,1.5,1.7c0,0.8-0.7,1.5-1.6,1.5c-0.9,0-1.6-0.7-1.6-1.6C46.2,47.1,46.2,47.1,46.2,47z
			 M32.4,44.3c-1.5,0.1-2.7,1.4-2.6,2.9c0.1,1.4,1.2,2.6,2.7,2.6c0.8,0,1.6-0.2,2.2-0.7l-0.6-0.8c-0.4,0.3-1,0.5-1.5,0.6
			c-0.8,0.1-1.5-0.5-1.6-1.3h3.9c0-0.1,0-0.3,0-0.4C34.9,45.4,33.9,44.3,32.4,44.3L32.4,44.3z M32.4,45.3c0.7,0,1.3,0.6,1.3,1.3H31
			C31,45.9,31.7,45.3,32.4,45.3L32.4,45.3z M61.1,47v-4.7H60v2.8c-0.4-0.5-1-0.8-1.7-0.8c-1.5,0.1-2.7,1.4-2.6,2.9
			c0.1,1.4,1.2,2.6,2.6,2.6c0.6,0,1.3-0.3,1.7-0.8v0.6h1.1V47z M63,48.9c0.1,0,0.1,0,0.2,0c0.1,0,0.1,0.1,0.2,0.1
			c0,0,0.1,0.1,0.1,0.2c0.1,0.1,0.1,0.3,0,0.4c0,0.1-0.1,0.1-0.1,0.2c0,0-0.1,0.1-0.2,0.1c-0.1,0-0.1,0-0.2,0
			c-0.2,0-0.4-0.1-0.5-0.3c-0.1-0.1-0.1-0.3,0-0.4c0-0.1,0.1-0.1,0.1-0.2c0,0,0.1-0.1,0.2-0.1C62.9,48.9,62.9,48.9,63,48.9L63,48.9z
			 M63,49.8c0.1,0,0.1,0,0.2,0c0,0,0.1-0.1,0.1-0.1c0.2-0.2,0.2-0.4,0-0.6c0,0-0.1-0.1-0.1-0.1c0,0-0.1,0-0.2,0c-0.1,0-0.1,0-0.2,0
			c0,0-0.1,0-0.1,0.1c-0.2,0.2-0.2,0.4,0,0.6c0,0,0.1,0.1,0.1,0.1C62.9,49.8,63,49.8,63,49.8L63,49.8z M63.1,49.2c0.1,0,0.1,0,0.1,0
			c0,0,0.1,0.1,0.1,0.1c0,0,0,0.1,0,0.1c0,0-0.1,0-0.1,0l0.2,0.2h-0.1L63,49.5h0v0.2h-0.1v-0.5H63.1z M62.9,49.3v0.1h0.1
			c0,0,0,0,0.1,0c0,0,0,0,0,0c0,0,0,0,0,0c0,0,0,0-0.1,0H62.9z M56.9,47c0.1-0.9,0.8-1.5,1.7-1.5c0.9,0.1,1.5,0.8,1.5,1.7
			c0,0.8-0.7,1.5-1.6,1.5c-0.9,0-1.6-0.7-1.6-1.6C56.8,47.1,56.9,47.1,56.9,47z M18.2,47v-2.6h-1.1v0.6c-0.4-0.5-1-0.8-1.7-0.8
			c-1.5,0.1-2.7,1.4-2.6,2.9c0.1,1.4,1.2,2.6,2.6,2.6c0.6,0,1.3-0.3,1.7-0.8v0.6h1.1V47z M13.9,47c0.1-0.9,0.8-1.5,1.7-1.5
			c0.9,0.1,1.5,0.8,1.5,1.7c0,0.8-0.7,1.5-1.6,1.5c-0.9,0-1.6-0.7-1.6-1.6C13.9,47.1,13.9,47.1,13.9,47L13.9,47z"/>
		<g>
			<rect x="23.5" y="4.3" class="st1" width="17.3" height="31.2"/>
			<path class="st2" d="M24.6,19.9c0-6.1,2.8-11.8,7.6-15.6C23.5-2.4,11.1-0.9,4.3,7.7c-6.8,8.6-5.3,21.1,3.3,27.8
				c7.2,5.6,17.3,5.6,24.5,0C27.4,31.7,24.6,26,24.6,19.9z"/>
			<path class="st3" d="M64.2,19.9c0,10.9-8.9,19.8-19.8,19.8c-4.4,0-8.8-1.5-12.2-4.2c8.6-6.8,10.1-19.2,3.3-27.8
				c-1-1.2-2.1-2.4-3.3-3.3C40.8-2.4,53.2-0.9,60,7.7C62.7,11.2,64.2,15.5,64.2,19.9L64.2,19.9z"/>
			<path class="st3" d="M62.3,32.2v-0.6h0.3v-0.1h-0.7v0.1h0.3v0.6H62.3z M63.6,32.2v-0.8h-0.2l-0.2,0.5l-0.2-0.5h-0.2v0.8h0.1v-0.6
				l0.2,0.5h0.1l0.2-0.5v0.6H63.6z"/>
		</g>
	</g>
</g>
</svg>
