<?xml version="1.0" encoding="utf-8"?>
<!-- Generator: Adobe Illustrator 26.0.1, SVG Export Plug-In . SVG Version: 6.00 Build 0)  -->
<svg version="1.1" id="Layer_1" xmlns="http://www.w3.org/2000/svg" xmlns:xlink="http://www.w3.org/1999/xlink" x="0px" y="0px"
	 width="184.5px" height="50px" viewBox="0 0 184.5 50" style="enable-background:new 0 0 184.5 50;" xml:space="preserve">
<style type="text/css">
	.st0{fill:#006FCF;}
</style>
<path class="st0" d="M28,0c3,0,5.9,0,9,0c1.7,4.6,3.3,9.2,5,13.7h0.2c1.7-4.4,3.3-9,4.8-13.7c3,0,5.9,0,8.9,0c0,7.2,0,14.4,0,21.8
	c-1.8,0-3.7,0-5.5,0c0-5.2,0-10.3,0-15.3h-0.2c-1.8,5.2-3.9,10.3-5.7,15.5c-1.7,0-3.3,0-5.2,0c-1.8-5.2-3.9-10.3-5.7-15.5h-0.2
	c0,5.2,0,10.3,0,15.5c-1.8,0-3.7,0-5.5,0C28,14.6,28,7.4,28,0z M175.1,13.3c-3-4.4-5.9-8.9-8.7-13.1c-2.6,0-4.8,0-7.2,0
	c0,7.2,0,14.4,0,21.6c1.8,0,3.7,0,5.7,0c0-4.6,0-9,0-13.7h0.2c3,4.6,6.1,9.2,9,13.7c2.4,0,4.6,0,7,0c0-7.2,0-14.4,0-21.8
	c-1.8,0-3.7,0-5.5,0c0,4.4,0,8.7,0,13.1C175.3,13.1,175.1,13.3,175.1,13.3z M99.6,13.1c4.4-2,5.2-8.3,1.5-11.3C99.3,0.4,97.2,0,95,0
	c-3.7,0-7.6,0-11.3,0c-0.2,0-0.6,0-0.7,0c0,7.2,0,14.4,0,21.8c1.8,0,3.7,0,5.7,0c0-2.6,0-5,0-7.6c0.7,0,1.5,0,2.2,0
	c2.2,2.6,4.4,5.2,6.6,7.6c2.4,0,4.6,0,7,0c-2.4-2.6-4.6-5.2-7-7.7C98.3,13.7,99.1,13.5,99.6,13.1z M88.7,5c0.2,0,0.4-0.2,0.4-0.2
	c2,0,4.2,0,6.3,0c1.7,0,2.6,1.7,2,3c-0.2,0.9-0.7,1.5-1.5,1.5c-2.4,0-4.6,0-7,0C88.7,7.9,88.7,6.5,88.7,5z M98.3,50
	c1.8,0,3.7,0,5.7,0c0-2.6,0-5,0-7.6c0.7,0,1.5,0,2.2,0c2.2,2.6,4.4,5,6.6,7.6c2.4,0,4.6,0,7,0c-2.4-2.6-4.8-5.2-7-7.7
	c0.7-0.4,1.5-0.6,2.2-0.9c4.1-2,5-7.9,1.7-11.1c-1.5-1.3-3.3-1.8-5.2-2c-4.1,0-8.3,0-12.4,0c-0.2,0-0.4,0-0.7,0
	C98.3,35.6,98.3,42.6,98.3,50z M104.1,33c0.7,0,1.5,0,2,0c1.3,0,2.8,0,4.1,0c1.7,0,2.6,0.9,2.6,2.4c0,1.1-0.7,2-2,2
	c-2.2,0-4.6,0-6.8,0C104.1,36,104.1,34.7,104.1,33z M66.4,8.5c0-1.3,0-2.4,0-3.7c4.2,0,8.5,0,12.5,0c0-1.7,0-3.1,0-4.8
	c-6.1,0-12.2,0-18.3,0c0,7.2,0,14.4,0,21.6c6.1,0,12.2,0,18.3,0c0-1.7,0-3.1,0-4.8c-4.2,0-8.3,0-12.5,0c0-1.3,0-2.4,0-3.7
	c4.1,0,8.1,0,12.4,0c0-1.7,0-3.1,0-4.8C74.7,8.5,70.7,8.5,66.4,8.5z M139.9,41.5c0-1.7,0-3.1,0-4.8c-4.1,0-8.1,0-12.2,0
	c0-1.3,0-2.4,0-3.7c4.2,0,8.3,0,12.5,0c0-1.7,0-3.1,0-4.8c-6.1,0-12.2,0-18.3,0c0,7.2,0,14.4,0,21.6c6.1,0,12.2,0,18.3,0
	c0-1.7,0-3.1,0-4.8c-4.2,0-8.5,0-12.5,0c0-1.3,0-2.4,0-3.7C131.7,41.5,135.8,41.5,139.9,41.5z M28,50c6.1,0,12.2,0,18.3,0
	c0-1.7,0-3.1,0-4.8c-4.2,0-8.3,0-12.5,0c0-1.3,0-2.4,0-3.7c4.1,0,8.1,0,12.2,0c0-1.7,0-3.1,0-4.8c-4.1,0-8.1,0-12.2,0
	c0-1.3,0-2.4,0-3.7c4.2,0,8.3,0,12.5,0c0-1.7,0-3.1,0-4.8c-6.1,0-12.2,0-18.3,0C28,35.6,28,42.6,28,50z M0,21.8c2.2,0,4.2,0,6.3,0
	c0.6-1.5,1.3-3,1.8-4.4c3.5,0,6.8,0,10.3,0c0.6,1.5,1.3,3,1.8,4.2c2.2,0,4.2,0,6.5,0C23.4,14.4,20.3,7.2,17,0c-2.6,0-5,0-7.4,0
	C6.5,7.4,3.1,14.6,0,21.8z M16.4,12.7c-2.2,0-4.1,0-6.3,0c0.9-2.6,2-5,3-7.4h0.2C14.4,7.7,15.3,10.1,16.4,12.7z M140.6,0
	c-3.1,7.2-6.5,14.4-9.6,21.8c2.2,0,4.2,0,6.3,0c0.6-1.5,1.3-3,1.8-4.4c3.5,0,6.8,0,10.3,0c0.6,1.5,1.3,3,1.8,4.2c2.2,0,4.2,0,6.5,0
	c-3.3-7.2-6.5-14.4-9.6-21.6C145.6,0,143.2,0,140.6,0z M144.1,5.4h0.2c0.9,2.4,2,4.8,3,7.2c-2.2,0-4.2,0-6.3,0
	C142.3,10.1,143.2,7.7,144.1,5.4z M162.5,28.2c-0.4,0-0.6,0-0.7,0c-3.9,0-7.6,0-11.4,0c-0.9,0-2,0.2-3,0.4
	c-4.6,1.3-6.3,7.2-3.1,10.7c1.3,1.5,3,2,4.6,2c1.8,0,3.9,0,5.7,0c0.4,0,0.9,0,1.3,0.2c0.7,0.2,1.1,0.9,1.3,1.7c0,1.1-0.7,1.8-2,1.8
	c-3.7,0-7.2,0-10.9,0c-0.4,0-0.6,0-0.9,0c0,1.7,0,3.1,0,4.8c0.2,0,0.4,0,0.6,0c3.7,0,7.6,0,11.3,0c1.3,0,2.6-0.4,3.7-0.7
	c3.1-1.3,4.2-4.4,3.7-7.6c-0.4-2-1.5-3.5-3.3-4.2c-1.1-0.4-2.4-0.6-3.7-0.7c-1.7-0.2-3.5,0-5.2,0c-1.1,0-2-0.7-2-1.7
	c0-1.1,0.7-1.8,1.8-1.8c0.4,0,0.6,0,0.9,0c3,0,5.9,0,9,0C161.1,31.5,161.8,29.9,162.5,28.2z M171.2,28.2c-3.9,0.2-6.3,2.4-6.8,6.1
	c-0.4,2.4,0.4,4.6,2.6,5.9c1.1,0.7,2.4,1.1,3.7,1.1c2,0,3.9,0,5.9,0c1.5,0,2.4,0.7,2.4,1.8c0,1.1-0.9,1.8-2.4,1.8c-3.5,0-7,0-10.5,0
	c-0.4,0-0.6,0-0.9,0c0,1.7,0,3.1,0,4.6c0.2,0,0.4,0,0.6,0c3.9,0,7.9,0,11.8,0c3,0,6.5-1.8,7-6.3c0.2-2.6-0.6-5.4-3.5-6.3
	c-1.1-0.4-2.4-0.6-3.7-0.7c-1.8-0.2-3.5,0-5.4,0c-1.5,0-2.4-1.3-1.8-2.6c0.4-0.9,1.3-1.1,2-1.1c2.8,0,5.7,0,8.5,0c0.4,0,0.6,0,0.9,0
	c0.7-1.7,1.5-3.1,2.2-4.8C179.7,28.2,175.5,28,171.2,28.2z M60.7,43c2,2.4,4.1,4.6,5.9,6.8c2.4,0,4.8,0,7.4,0
	c-3.3-3.7-6.5-7.4-9.8-11.1c3.1-3.5,6.3-7,9.4-10.5c-2.6,0-4.8,0-7.2,0c-1.8,2.2-3.7,4.4-5.7,6.6c-2-2.2-3.9-4.4-5.7-6.6
	c-2.6,0-4.8,0-7.4,0c3.1,3.7,6.3,7.2,9.6,10.7c-3.1,3.7-6.5,7.2-9.6,10.9c2.6,0,4.8,0,7.2,0C56.6,47.6,58.7,45.4,60.7,43z
	 M75.1,49.8c1.8,0,3.7,0,5.7,0c0-2.4,0-4.6,0-7c0.4,0,0.6,0,0.9,0c1.3,0,2.4,0,3.7,0c1.5,0,3,0,4.4-0.2c2.8-0.6,4.8-2,5.5-4.8
	c0.7-2.8,0.4-5.4-1.7-7.6c-1.5-1.5-3.3-2-5.4-2c-4.2,0-8.3,0-12.5,0c-0.2,0-0.4,0-0.6,0C75.1,35.6,75.1,42.6,75.1,49.8z M80.8,33.2
	c0.2,0,0.4-0.2,0.6-0.2c2,0,3.9,0,5.9,0c1.8,0,3.1,1.5,2.6,3.3c-0.4,0.9-1.1,1.7-2,1.7c-2.2,0-4.6,0-7,0
	C80.8,36.3,80.8,34.7,80.8,33.2z M133.4,0.2C133.4,0,133.2,0,133.4,0.2c-3.3,0-6.5-0.2-9.6,0.2c-3.7,0.6-6.3,2.8-7.6,6.5
	c-0.9,2.6-0.9,5.4-0.2,8.1c0.6,1.7,1.3,3.3,2.6,4.4c2.8,2.4,5.9,2.8,9.4,2.6c0.7-1.5,1.5-3.1,2.2-4.8c-1.3,0-2.2,0-3.3,0
	c-2.4,0-4.4-0.7-5.4-3.3c-0.4-1.1-0.6-2.6-0.4-3.7c0.6-3.3,2.4-5,5.5-5c2,0,3.9,0,5.9,0c0.2,0,0.6,0,0.7,0
	C133.4,3.3,133.4,1.7,133.4,0.2z M112.4,0c-1.8,0-3.7,0-5.5,0c0,7.2,0,14.4,0,21.8c1.8,0,3.7,0,5.5,0C112.4,14.6,112.4,7.4,112.4,0z
	"/>
</svg>
