<?xml version="1.0" encoding="utf-8"?>
<!-- Generator: Adobe Illustrator 26.0.1, SVG Export Plug-In . SVG Version: 6.00 Build 0)  -->
<svg version="1.1" id="Layer_1" xmlns="http://www.w3.org/2000/svg" xmlns:xlink="http://www.w3.org/1999/xlink" x="0px" y="0px"
	 width="204.7px" height="50px" viewBox="0 0 204.7 50" style="enable-background:new 0 0 204.7 50;" xml:space="preserve">
<style type="text/css">
	.st0{fill:#253B80;}
	.st1{fill:#179BD7;}
	.st2{fill:#222D65;}
</style>
<path class="st0" d="M76.5,11.1H65.3c-0.8,0-1.5,0.5-1.5,1.3l-4.6,29c-0.2,0.5,0.3,1.2,1,1.2h5.5c0.8,0,1.5-0.5,1.5-1.3l1.2-7.8
	c0.2-0.8,0.8-1.3,1.5-1.3h3.6c7.5,0,11.8-3.6,12.9-10.8c0.5-3.1,0-5.6-1.5-7.3C83.1,12.3,80.3,11.1,76.5,11.1z M77.8,21.9
	C77.2,26,74.2,26,71.1,26h-1.7l1.2-7.6c0-0.5,0.5-0.8,1-0.8h0.8c2,0,4,0,5,1.2C77.8,19.4,78,20.4,77.8,21.9z"/>
<path class="st0" d="M110.5,21.7H105c-0.5,0-0.8,0.3-1,0.8l-0.2,1.5l-0.3-0.5c-1.2-1.7-3.8-2.3-6.5-2.3c-6,0-11.1,4.5-12.1,10.9
	c-0.5,3.1,0.2,6.3,2,8.3c1.7,2,4,2.8,6.8,2.8c4.8,0,7.5-3.1,7.5-3.1l-0.2,1.5c-0.2,0.5,0.3,1.2,1,1.2h4.8c0.8,0,1.5-0.5,1.5-1.3
	l3-18.5C111.4,22.2,111,21.7,110.5,21.7z M102.8,32.1c-0.5,3.1-3,5.1-6.1,5.1c-1.7,0-2.8-0.5-3.6-1.5c-0.8-1-1.2-2.3-0.8-3.8
	c0.5-3.1,3-5.3,6.1-5.3c1.5,0,2.8,0.5,3.6,1.5C102.7,29.3,103,30.6,102.8,32.1z"/>
<path class="st0" d="M139.3,21.7h-5.5c-0.5,0-1,0.3-1.3,0.7L125,33.4l-3.1-10.6c-0.2-0.7-0.8-1.2-1.5-1.2h-5.3
	c-0.7,0-1.2,0.7-0.8,1.3l6,17.5l-5.6,7.9c-0.5,0.7,0,1.5,0.8,1.5h5.5c0.5,0,1-0.3,1.3-0.7l17.9-26.2
	C140.4,22.5,140.1,21.7,139.3,21.7z"/>
<path class="st1" d="M157.3,11.1h-11.3c-0.8,0-1.5,0.5-1.5,1.3l-4.6,29c-0.2,0.5,0.3,1.2,1,1.2h5.8c0.5,0,1-0.3,1.2-1l1.3-8.3
	c0.2-0.8,0.8-1.3,1.5-1.3h3.6c7.5,0,11.8-3.6,12.9-10.8c0.5-3.1,0-5.6-1.5-7.3C163.9,12.3,161.1,11.1,157.3,11.1z M158.6,21.9
	C158,26,155,26,151.8,26h-1.7l1.2-7.6c0-0.5,0.5-0.8,1-0.8h0.8c2,0,4,0,5,1.2C158.6,19.4,158.8,20.4,158.6,21.9z"/>
<path class="st1" d="M191.1,21.7h-5.5c-0.5,0-0.8,0.3-1,0.8l-0.2,1.5l-0.3-0.5c-1.2-1.7-3.8-2.3-6.5-2.3c-6,0-11.1,4.5-12.1,10.9
	c-0.5,3.1,0.2,6.3,2,8.3c1.7,2,4,2.8,6.8,2.8c4.8,0,7.5-3.1,7.5-3.1l-0.2,1.5c-0.2,0.5,0.3,1.2,1,1.2h4.8c0.8,0,1.5-0.5,1.5-1.3
	l3-18.5C192.2,22.2,191.7,21.7,191.1,21.7z M183.6,32.1c-0.5,3.1-3,5.1-6.1,5.1c-1.5,0-2.8-0.5-3.6-1.5c-0.8-1-1.2-2.3-0.8-3.8
	c0.5-3.1,3-5.3,6.1-5.3c1.5,0,2.8,0.5,3.6,1.5C183.5,29.3,183.8,30.6,183.6,32.1z"/>
<path class="st1" d="M197.5,11.9l-4.6,29.6c-0.2,0.5,0.3,1.2,1,1.2h4.6c0.8,0,1.5-0.5,1.5-1.3l4.6-29c0.2-0.5-0.3-1.2-1-1.2h-5.3
	C198,11.1,197.5,11.6,197.5,11.9z"/>
<path class="st0" d="M12.1,48.3l0.8-5.5h-2H1.8L8.1,2.2c0-0.2,0.2-0.3,0.2-0.3c0.2,0,0.3-0.2,0.3-0.2h15.6c5.1,0,8.8,1.2,10.6,3.3
	c0.8,1,1.5,2,1.7,3.1c0.3,1.2,0.3,2.6,0,4.3v0.2v1.2l0.8,0.5c0.7,0.3,1.3,0.8,1.8,1.3c0.8,0.8,1.2,2,1.5,3.1
	c0.2,1.3,0.2,2.8-0.2,4.6c-0.3,2-1,3.8-2,5.3c-0.8,1.3-1.8,2.5-3,3.3c-1.2,0.8-2.5,1.5-4.1,1.8c-1.5,0.3-3.1,0.7-5.1,0.7H25
	c-0.8,0-1.7,0.3-2.3,0.8c-0.7,0.5-1.2,1.3-1.2,2.2l-0.2,0.5l-1.5,9.8V48c0,0.2,0,0.2-0.2,0.2h-0.2C19.6,48.3,12.1,48.3,12.1,48.3z"
	/>
<path class="st1" d="M38.1,12.7L38.1,12.7L38.1,12.7c0,0.2,0,0.5,0,0.8c-2,10.6-9.1,14.1-18,14.1h-4.6c-1.2,0-2,0.8-2.2,1.8l0,0l0,0
	L11,44.2l-0.7,4.1c-0.2,0.7,0.5,1.3,1.2,1.3h8.1c1,0,1.8-0.7,2-1.7v-0.3l1.5-9.6l0.2-0.5c0.2-1,1-1.7,2-1.7h1.2
	c7.8,0,13.9-3.1,15.7-12.4c0.8-3.8,0.3-7.1-1.7-9.3C39.8,13.7,39.1,13.1,38.1,12.7z"/>
<path class="st2" d="M36.1,11.9c-0.3-0.2-0.7-0.3-1-0.3s-0.7-0.2-1-0.2c-1.2-0.2-2.6-0.3-4-0.3H17.9c-0.3,0-0.7,0-0.8,0.2
	c-0.7,0.3-1,0.8-1.2,1.5l-2.6,16.4v0.5c0.2-1.2,1.2-1.8,2.2-1.8h4.6c8.9,0,15.9-3.6,18-14.1c0-0.5,0-0.8,0-1
	c-0.5-0.3-1.2-0.5-1.7-0.7C36.3,11.9,36.1,11.9,36.1,11.9z"/>
<path class="st0" d="M15.9,12.7c0.2-0.7,0.5-1.2,1.2-1.5c0.3-0.2,0.5-0.2,0.8-0.2h12.3c1.5,0,2.8,0.2,4,0.3c0.3,0,0.7,0.2,1,0.2
	s0.7,0.2,1,0.3c0.2,0,0.3,0.2,0.5,0.2c0.7,0.2,1.2,0.5,1.7,0.7c0.7-3.8,0-6.5-2.2-8.9C33.8,1.2,29.7,0,24.2,0H8.6
	c-1,0-2,0.8-2.2,1.8L0,42.9c-0.2,0.8,0.5,1.5,1.3,1.5H11l2.3-15.2L15.9,12.7z"/>
</svg>
