<?xml version="1.0" encoding="utf-8"?>
<!-- Generator: Adobe Illustrator 26.0.1, SVG Export Plug-In . SVG Version: 6.00 Build 0)  -->
<svg version="1.1" id="Layer_1" xmlns="http://www.w3.org/2000/svg" xmlns:xlink="http://www.w3.org/1999/xlink" x="0px" y="0px"
	 width="154.8px" height="50px" viewBox="0 0 154.8 50" style="enable-background:new 0 0 154.8 50;" xml:space="preserve">
<style type="text/css">
	.st0{fill:#1434CB;}
</style>
<path class="st0" d="M58.8,0.9L38.5,49.3H25.3l-10-38.6c-0.6-2.4-1.1-3.2-3-4.2c-3-1.6-8-3.2-12.3-4.1l0.3-1.4h21.3
	c2.7,0,5.2,1.8,5.8,4.9l5.3,28l13-32.9H58.8L58.8,0.9z M110.6,33.5C110.7,20.7,93,20,93.1,14.3c0-1.7,1.7-3.6,5.3-4
	c1.8-0.2,6.7-0.4,12.3,2.2l2.2-10.3c-3-1.1-6.9-2.1-11.7-2.1C88.8,0,80.1,6.6,80.1,16c-0.1,7,6.2,10.8,11,13.2
	c4.9,2.4,6.5,3.9,6.5,6c0,3.2-3.9,4.7-7.5,4.7c-6.3,0.1-9.9-1.7-12.8-3.1l-2.3,10.6c2.9,1.3,8.3,2.5,13.9,2.6
	C102,50,110.6,43.5,110.6,33.5 M143.3,49.3h11.6L144.7,0.9h-10.7c-2.4,0-4.4,1.4-5.3,3.5L110,49.2h13.1l2.6-7.2h16.1L143.3,49.3z
	 M129.3,32.1l6.6-18.2l3.8,18.2H129.3z M76.7,0.9L66.3,49.3H53.8L64.2,0.9H76.7L76.7,0.9z"/>
</svg>
